<?xml version="1.0" encoding="UTF-8" standalone="no"?>
<!DOCTYPE svg PUBLIC "-//W3C//DTD SVG 1.1//EN"
 "http://www.w3.org/Graphics/SVG/1.1/DTD/svg11.dtd">
<!-- Generated by graphviz version 2.46.0 (20210119.1425)
 -->
<!-- Title: dependencies Pages: 1 -->
<svg width="2252pt" height="284pt"
 viewBox="0.00 0.00 2252.00 284.00" xmlns="http://www.w3.org/2000/svg" xmlns:xlink="http://www.w3.org/1999/xlink">
<g id="graph0" class="graph" transform="scale(1 1) rotate(0) translate(4 280)">
<title>dependencies</title>
<polygon fill="white" stroke="transparent" points="-4,4 -4,-280 2248,-280 2248,4 -4,4"/>
<text text-anchor="start" x="1101.01" y="-42.4" font-family="sans-serif" font-weight="bold" font-size="14.00">Legend</text>
<polygon fill="#ffffb3" stroke="transparent" points="888,-10 888,-30 908,-30 908,-10 888,-10"/>
<text text-anchor="start" x="911.63" y="-15.4" font-family="sans-serif" font-size="14.00"> &#160;Declarations</text>
<polygon fill="#8dd3c7" stroke="transparent" points="1001,-10 1001,-30 1021,-30 1021,-10 1001,-10"/>
<text text-anchor="start" x="1024.73" y="-15.4" font-family="sans-serif" font-size="14.00"> &#160;Module</text>
<polygon fill="#80b1d3" stroke="transparent" points="1087,-10 1087,-30 1107,-30 1107,-10 1087,-10"/>
<text text-anchor="start" x="1110.78" y="-15.4" font-family="sans-serif" font-size="14.00"> &#160;Bootstrap</text>
<polygon fill="#fdb462" stroke="transparent" points="1184,-10 1184,-30 1204,-30 1204,-10 1184,-10"/>
<text text-anchor="start" x="1207.67" y="-15.4" font-family="sans-serif" font-size="14.00"> &#160;Providers</text>
<polygon fill="#fb8072" stroke="transparent" points="1280,-10 1280,-30 1300,-30 1300,-10 1280,-10"/>
<text text-anchor="start" x="1303.73" y="-15.4" font-family="sans-serif" font-size="14.00"> &#160;Exports</text>
<g id="clust1" class="cluster">
<title>cluster_AppModule</title>
<polygon fill="none" stroke="black" stroke-dasharray="1,5" points="8,-70 8,-268 2236,-268 2236,-70 8,-70"/>
</g>
<g id="clust2" class="cluster">
<title>cluster_AppModule_declarations</title>
<polygon fill="none" stroke="black" points="168,-78 168,-130 2228,-130 2228,-78 168,-78"/>
</g>
<g id="clust17" class="cluster">
<title>cluster_AppModule_imports</title>
<polygon fill="none" stroke="black" points="16,-78 16,-130 160,-130 160,-78 16,-78"/>
</g>
<g id="clust19" class="cluster">
<title>cluster_AppModule_bootstrap</title>
<polygon fill="none" stroke="black" points="1130,-208 1130,-260 1254,-260 1254,-208 1130,-208"/>
</g>
<!-- AlertasComponent -->
<g id="node1" class="node">
<title>AlertasComponent</title>
<polygon fill="#ffffb3" stroke="black" points="2219.75,-122 2098.25,-122 2098.25,-86 2219.75,-86 2219.75,-122"/>
<text text-anchor="middle" x="2159" y="-99.8" font-family="Times,serif" font-size="14.00">AlertasComponent</text>
</g>
<!-- AppModule -->
<g id="node15" class="node">
<title>AppModule</title>
<polygon fill="#8dd3c7" stroke="black" points="1233.66,-187 1230.66,-191 1209.66,-191 1206.66,-187 1150.34,-187 1150.34,-151 1233.66,-151 1233.66,-187"/>
<text text-anchor="middle" x="1192" y="-164.8" font-family="Times,serif" font-size="14.00">AppModule</text>
</g>
<!-- AlertasComponent&#45;&gt;AppModule -->
<g id="edge1" class="edge">
<title>AlertasComponent&#45;&gt;AppModule</title>
<path fill="none" stroke="black" d="M2159,-122.32C2159,-145.66 2159,-183 2159,-183 2159,-183 1243.86,-183 1243.86,-183"/>
<polygon fill="black" stroke="black" points="1243.86,-179.5 1233.86,-183 1243.86,-186.5 1243.86,-179.5"/>
</g>
<!-- AppComponent -->
<g id="node2" class="node">
<title>AppComponent</title>
<polygon fill="#ffffb3" stroke="black" points="2079.94,-122 1974.06,-122 1974.06,-86 2079.94,-86 2079.94,-122"/>
<text text-anchor="middle" x="2027" y="-99.8" font-family="Times,serif" font-size="14.00">AppComponent</text>
</g>
<!-- AppComponent&#45;&gt;AppModule -->
<g id="edge2" class="edge">
<title>AppComponent&#45;&gt;AppModule</title>
<path fill="none" stroke="black" d="M2027,-122.29C2027,-144.21 2027,-178 2027,-178 2027,-178 1243.69,-178 1243.69,-178"/>
<polygon fill="black" stroke="black" points="1243.69,-174.5 1233.69,-178 1243.69,-181.5 1243.69,-174.5"/>
</g>
<!-- ContatoComponent -->
<g id="node3" class="node">
<title>ContatoComponent</title>
<polygon fill="#ffffb3" stroke="black" points="1955.67,-122 1830.33,-122 1830.33,-86 1955.67,-86 1955.67,-122"/>
<text text-anchor="middle" x="1893" y="-99.8" font-family="Times,serif" font-size="14.00">ContatoComponent</text>
</g>
<!-- ContatoComponent&#45;&gt;AppModule -->
<g id="edge3" class="edge">
<title>ContatoComponent&#45;&gt;AppModule</title>
<path fill="none" stroke="black" d="M1893,-122.03C1893,-142.77 1893,-174 1893,-174 1893,-174 1243.75,-174 1243.75,-174"/>
<polygon fill="black" stroke="black" points="1243.75,-170.5 1233.75,-174 1243.75,-177.5 1243.75,-170.5"/>
</g>
<!-- FooterComponent -->
<g id="node4" class="node">
<title>FooterComponent</title>
<polygon fill="#ffffb3" stroke="black" points="1811.88,-122 1694.12,-122 1694.12,-86 1811.88,-86 1811.88,-122"/>
<text text-anchor="middle" x="1753" y="-99.8" font-family="Times,serif" font-size="14.00">FooterComponent</text>
</g>
<!-- FooterComponent&#45;&gt;AppModule -->
<g id="edge4" class="edge">
<title>FooterComponent&#45;&gt;AppModule</title>
<path fill="none" stroke="black" d="M1753,-122.11C1753,-141.34 1753,-169 1753,-169 1753,-169 1243.71,-169 1243.71,-169"/>
<polygon fill="black" stroke="black" points="1243.71,-165.5 1233.71,-169 1243.71,-172.5 1243.71,-165.5"/>
</g>
<!-- HomeComponent -->
<g id="node5" class="node">
<title>HomeComponent</title>
<polygon fill="#ffffb3" stroke="black" points="1675.55,-122 1560.45,-122 1560.45,-86 1675.55,-86 1675.55,-122"/>
<text text-anchor="middle" x="1618" y="-99.8" font-family="Times,serif" font-size="14.00">HomeComponent</text>
</g>
<!-- HomeComponent&#45;&gt;AppModule -->
<g id="edge5" class="edge">
<title>HomeComponent&#45;&gt;AppModule</title>
<path fill="none" stroke="black" d="M1618,-122.3C1618,-140.27 1618,-165 1618,-165 1618,-165 1244.01,-165 1244.01,-165"/>
<polygon fill="black" stroke="black" points="1244.01,-161.5 1234.01,-165 1244.01,-168.5 1244.01,-161.5"/>
</g>
<!-- InicioComponent -->
<g id="node6" class="node">
<title>InicioComponent</title>
<polygon fill="#ffffb3" stroke="black" points="1541.99,-122 1428.01,-122 1428.01,-86 1541.99,-86 1541.99,-122"/>
<text text-anchor="middle" x="1485" y="-99.8" font-family="Times,serif" font-size="14.00">InicioComponent</text>
</g>
<!-- InicioComponent&#45;&gt;AppModule -->
<g id="edge6" class="edge">
<title>InicioComponent&#45;&gt;AppModule</title>
<path fill="none" stroke="black" d="M1485,-122.03C1485,-138.4 1485,-160 1485,-160 1485,-160 1243.67,-160 1243.67,-160"/>
<polygon fill="black" stroke="black" points="1243.67,-156.5 1233.67,-160 1243.67,-163.5 1243.67,-156.5"/>
</g>
<!-- MenuComponent -->
<g id="node7" class="node">
<title>MenuComponent</title>
<polygon fill="#ffffb3" stroke="black" points="1409.99,-122 1296.01,-122 1296.01,-86 1409.99,-86 1409.99,-122"/>
<text text-anchor="middle" x="1353" y="-99.8" font-family="Times,serif" font-size="14.00">MenuComponent</text>
</g>
<!-- MenuComponent&#45;&gt;AppModule -->
<g id="edge7" class="edge">
<title>MenuComponent&#45;&gt;AppModule</title>
<path fill="none" stroke="black" d="M1353,-122.19C1353,-137.18 1353,-156 1353,-156 1353,-156 1243.88,-156 1243.88,-156"/>
<polygon fill="black" stroke="black" points="1243.88,-152.5 1233.88,-156 1243.88,-159.5 1243.88,-152.5"/>
</g>
<!-- PostagemDeleteComponent -->
<g id="node8" class="node">
<title>PostagemDeleteComponent</title>
<polygon fill="#ffffb3" stroke="black" points="1278.3,-122 1105.7,-122 1105.7,-86 1278.3,-86 1278.3,-122"/>
<text text-anchor="middle" x="1192" y="-99.8" font-family="Times,serif" font-size="14.00">PostagemDeleteComponent</text>
</g>
<!-- PostagemDeleteComponent&#45;&gt;AppModule -->
<g id="edge8" class="edge">
<title>PostagemDeleteComponent&#45;&gt;AppModule</title>
<path fill="none" stroke="black" d="M1192,-122.11C1192,-122.11 1192,-140.99 1192,-140.99"/>
<polygon fill="black" stroke="black" points="1188.5,-140.99 1192,-150.99 1195.5,-140.99 1188.5,-140.99"/>
</g>
<!-- PostagemEditComponent -->
<g id="node9" class="node">
<title>PostagemEditComponent</title>
<polygon fill="#ffffb3" stroke="black" points="1087.6,-122 928.4,-122 928.4,-86 1087.6,-86 1087.6,-122"/>
<text text-anchor="middle" x="1008" y="-99.8" font-family="Times,serif" font-size="14.00">PostagemEditComponent</text>
</g>
<!-- PostagemEditComponent&#45;&gt;AppModule -->
<g id="edge9" class="edge">
<title>PostagemEditComponent&#45;&gt;AppModule</title>
<path fill="none" stroke="black" d="M1008,-122.19C1008,-137.18 1008,-156 1008,-156 1008,-156 1140.25,-156 1140.25,-156"/>
<polygon fill="black" stroke="black" points="1140.25,-159.5 1150.25,-156 1140.25,-152.5 1140.25,-159.5"/>
</g>
<!-- SobreComponent -->
<g id="node10" class="node">
<title>SobreComponent</title>
<polygon fill="#ffffb3" stroke="black" points="909.99,-122 796.01,-122 796.01,-86 909.99,-86 909.99,-122"/>
<text text-anchor="middle" x="853" y="-99.8" font-family="Times,serif" font-size="14.00">SobreComponent</text>
</g>
<!-- SobreComponent&#45;&gt;AppModule -->
<g id="edge10" class="edge">
<title>SobreComponent&#45;&gt;AppModule</title>
<path fill="none" stroke="black" d="M853,-122.03C853,-138.4 853,-160 853,-160 853,-160 1140.09,-160 1140.09,-160"/>
<polygon fill="black" stroke="black" points="1140.09,-163.5 1150.09,-160 1140.09,-156.5 1140.09,-163.5"/>
</g>
<!-- TemaComponent -->
<g id="node11" class="node">
<title>TemaComponent</title>
<polygon fill="#ffffb3" stroke="black" points="777.7,-122 664.3,-122 664.3,-86 777.7,-86 777.7,-122"/>
<text text-anchor="middle" x="721" y="-99.8" font-family="Times,serif" font-size="14.00">TemaComponent</text>
</g>
<!-- TemaComponent&#45;&gt;AppModule -->
<g id="edge11" class="edge">
<title>TemaComponent&#45;&gt;AppModule</title>
<path fill="none" stroke="black" d="M721,-122.3C721,-140.27 721,-165 721,-165 721,-165 1140.2,-165 1140.2,-165"/>
<polygon fill="black" stroke="black" points="1140.2,-168.5 1150.2,-165 1140.2,-161.5 1140.2,-168.5"/>
</g>
<!-- TemaDeleteComponent -->
<g id="node12" class="node">
<title>TemaDeleteComponent</title>
<polygon fill="#ffffb3" stroke="black" points="646.74,-122 497.26,-122 497.26,-86 646.74,-86 646.74,-122"/>
<text text-anchor="middle" x="572" y="-99.8" font-family="Times,serif" font-size="14.00">TemaDeleteComponent</text>
</g>
<!-- TemaDeleteComponent&#45;&gt;AppModule -->
<g id="edge12" class="edge">
<title>TemaDeleteComponent&#45;&gt;AppModule</title>
<path fill="none" stroke="black" d="M572,-122.11C572,-141.34 572,-169 572,-169 572,-169 1139.87,-169 1139.87,-169"/>
<polygon fill="black" stroke="black" points="1139.87,-172.5 1149.87,-169 1139.87,-165.5 1139.87,-172.5"/>
</g>
<!-- TemaEditComponent -->
<g id="node13" class="node">
<title>TemaEditComponent</title>
<polygon fill="#ffffb3" stroke="black" points="479.04,-122 342.96,-122 342.96,-86 479.04,-86 479.04,-122"/>
<text text-anchor="middle" x="411" y="-99.8" font-family="Times,serif" font-size="14.00">TemaEditComponent</text>
</g>
<!-- TemaEditComponent&#45;&gt;AppModule -->
<g id="edge13" class="edge">
<title>TemaEditComponent&#45;&gt;AppModule</title>
<path fill="none" stroke="black" d="M411,-122.03C411,-142.77 411,-174 411,-174 411,-174 1140.29,-174 1140.29,-174"/>
<polygon fill="black" stroke="black" points="1140.29,-177.5 1150.29,-174 1140.29,-170.5 1140.29,-177.5"/>
</g>
<!-- UsuarioEditComponent -->
<g id="node14" class="node">
<title>UsuarioEditComponent</title>
<polygon fill="#ffffb3" stroke="black" points="324.48,-122 175.52,-122 175.52,-86 324.48,-86 324.48,-122"/>
<text text-anchor="middle" x="250" y="-99.8" font-family="Times,serif" font-size="14.00">UsuarioEditComponent</text>
</g>
<!-- UsuarioEditComponent&#45;&gt;AppModule -->
<g id="edge14" class="edge">
<title>UsuarioEditComponent&#45;&gt;AppModule</title>
<path fill="none" stroke="black" d="M250,-122.29C250,-144.21 250,-178 250,-178 250,-178 1140.31,-178 1140.31,-178"/>
<polygon fill="black" stroke="black" points="1140.31,-181.5 1150.31,-178 1140.31,-174.5 1140.31,-181.5"/>
</g>
<!-- AppComponent  -->
<g id="node17" class="node">
<title>AppComponent </title>
<polygon fill="#80b1d3" stroke="black" points="1246.44,-252 1137.56,-252 1137.56,-216 1246.44,-216 1246.44,-252"/>
<text text-anchor="middle" x="1192" y="-229.8" font-family="Times,serif" font-size="14.00">AppComponent </text>
</g>
<!-- AppModule&#45;&gt;AppComponent  -->
<g id="edge16" class="edge">
<title>AppModule&#45;&gt;AppComponent </title>
<path fill="none" stroke="black" stroke-dasharray="1,5" d="M1192,-187.11C1192,-187.11 1192,-205.99 1192,-205.99"/>
<polygon fill="black" stroke="black" points="1188.5,-205.99 1192,-215.99 1195.5,-205.99 1188.5,-205.99"/>
</g>
<!-- AppRoutingModule -->
<g id="node16" class="node">
<title>AppRoutingModule</title>
<polygon fill="#8dd3c7" stroke="black" points="152.27,-122 149.27,-126 128.27,-126 125.27,-122 23.73,-122 23.73,-86 152.27,-86 152.27,-122"/>
<text text-anchor="middle" x="88" y="-99.8" font-family="Times,serif" font-size="14.00">AppRoutingModule</text>
</g>
<!-- AppRoutingModule&#45;&gt;AppModule -->
<g id="edge15" class="edge">
<title>AppRoutingModule&#45;&gt;AppModule</title>
<path fill="none" stroke="black" d="M88,-122.32C88,-145.66 88,-183 88,-183 88,-183 1140.07,-183 1140.07,-183"/>
<polygon fill="black" stroke="black" points="1140.07,-186.5 1150.07,-183 1140.07,-179.5 1140.07,-186.5"/>
</g>
</g>
</svg>
